<svg xmlns="http://www.w3.org/2000/svg" xmlns:xlink="http://www.w3.org/1999/xlink" width="500" zoomAndPan="magnify" viewBox="0 0 375 374.999991" height="500" preserveAspectRatio="xMidYMid meet" version="1.0"><defs><clipPath id="a16b0a8be4"><path d="M 12.914062 37.425781 L 362.085938 37.425781 L 362.085938 337.425781 L 12.914062 337.425781 Z M 12.914062 37.425781 " clip-rule="nonzero"/></clipPath><clipPath id="b60e5ec8a5"><path d="M 362.085938 187.460938 L 274.792969 337.496094 L 100.207031 337.496094 L 12.914062 187.460938 L 100.207031 37.425781 L 274.792969 37.425781 Z M 362.085938 187.460938 " clip-rule="nonzero"/></clipPath><clipPath id="f51be6a2f1"><path d="M 0 161.800781 L 375 161.800781 L 375 213.199219 L 0 213.199219 Z M 0 161.800781 " clip-rule="nonzero"/></clipPath><clipPath id="fc41c95f57"><path d="M 131.46875 137.769531 L 244 137.769531 L 244 223.296875 L 131.46875 223.296875 Z M 131.46875 137.769531 " clip-rule="nonzero"/></clipPath><clipPath id="529d93adf1"><path d="M 187.71875 137.769531 L 243.96875 223.296875 L 131.46875 223.296875 Z M 187.71875 137.769531 " clip-rule="nonzero"/></clipPath><clipPath id="1f0cdc4ade"><path d="M 132.253906 212.175781 L 243.976562 212.175781 L 243.976562 234.417969 L 132.253906 234.417969 Z M 132.253906 212.175781 " clip-rule="nonzero"/></clipPath><clipPath id="59ae29e76c"><path d="M 188.113281 212.175781 L 243.96875 223.296875 L 188.113281 234.417969 L 132.253906 223.296875 Z M 188.113281 212.175781 " clip-rule="nonzero"/></clipPath></defs><rect x="-37.5" width="450" fill="#ffffff" y="-37.499999" height="449.999989" fill-opacity="1"/><rect x="-37.5" width="450" fill="#000000" y="-37.499999" height="449.999989" fill-opacity="1"/><g clip-path="url(#a16b0a8be4)"><g clip-path="url(#b60e5ec8a5)"><path stroke-linecap="butt" transform="matrix(0.75, 0, 0, 0.75, 12.912171, 37.427525)" fill="none" stroke-linejoin="miter" d="M 465.565053 200.044564 L 349.17442 400.091452 L 116.393155 400.091452 L 0.00252209 200.044564 L 116.393155 -0.00232434 L 349.17442 -0.00232434 Z M 465.565053 200.044564 " stroke="#ff690c" stroke-width="50" stroke-opacity="1" stroke-miterlimit="4"/></g></g><g clip-path="url(#f51be6a2f1)"><path fill="#000000" d="M 0 161.800781 L 375.042969 161.800781 L 375.042969 213.199219 L 0 213.199219 Z M 0 161.800781 " fill-opacity="1" fill-rule="nonzero"/></g><g clip-path="url(#fc41c95f57)"><g clip-path="url(#529d93adf1)"><path fill="#ff690c" d="M 131.46875 137.769531 L 244.058594 137.769531 L 244.058594 223.296875 L 131.46875 223.296875 Z M 131.46875 137.769531 " fill-opacity="1" fill-rule="nonzero"/></g></g><g clip-path="url(#1f0cdc4ade)"><g clip-path="url(#59ae29e76c)"><path fill="#ff690c" d="M 132.253906 212.175781 L 243.976562 212.175781 L 243.976562 234.417969 L 132.253906 234.417969 Z M 132.253906 212.175781 " fill-opacity="1" fill-rule="nonzero"/></g></g><path stroke-linecap="round" transform="matrix(-0.00168534, 0.749998, -0.749998, -0.00168534, 188.842653, 137.775855)" fill="none" stroke-linejoin="miter" d="M 1.500152 1.500378 L 128.833816 1.500702 " stroke="#ffffff" stroke-width="3" stroke-opacity="1" stroke-miterlimit="4"/><path stroke-linecap="round" transform="matrix(0.412124, 0.626621, -0.626621, 0.412124, 188.658976, 137.154293)" fill="none" stroke-linejoin="miter" d="M 1.497411 1.500361 L 134.989188 1.499625 " stroke="#ffffff" stroke-width="3" stroke-opacity="1" stroke-miterlimit="4"/><path stroke-linecap="round" transform="matrix(0.732289, 0.162026, -0.162026, 0.732289, 132.497794, 222.199497)" fill="none" stroke-linejoin="miter" d="M 1.497334 1.497984 L 73.942542 1.498314 " stroke="#ffffff" stroke-width="3" stroke-opacity="1" stroke-miterlimit="4"/><path stroke-linecap="round" transform="matrix(0.733023, -0.158672, 0.158672, 0.733023, 187.261941, 234.421201)" fill="none" stroke-linejoin="miter" d="M 1.498035 1.497558 L 75.537989 1.500259 " stroke="#ffffff" stroke-width="3" stroke-opacity="1" stroke-miterlimit="4"/><path stroke-linecap="round" transform="matrix(-0.408083, 0.62926, -0.62926, -0.408083, 188.658127, 138.386417)" fill="none" stroke-linejoin="miter" d="M 1.501033 1.500203 L 134.412985 1.498866 " stroke="#ffffff" stroke-width="3" stroke-opacity="1" stroke-miterlimit="4"/></svg>